<svg width="16" height="16" viewBox="0 0 16 16" xmlns="http://www.w3.org/2000/svg"><title>common-small-watchlist-hollow</title><path d="M8.89 13.148a1.448 1.448 0 0 0-.071-.066l.07.066zm-.404-1.265a27.362 27.362 0 0 0 2.042-2.06C12.095 8.056 13 6.457 13 5.464a2.2 2.2 0 0 0-2.2-2.2c-.576 0-1.062.18-1.471.544L8.085 4.913 6.772 3.89c-.532-.414-1.075-.628-1.572-.628a2.2 2.2 0 0 0-2.2 2.2c0 .394.152.924.469 1.554.474.944 1.264 2.012 2.282 3.129a30.759 30.759 0 0 0 2.221 2.193c.16-.139.336-.294.514-.456zm-1.011 2.68C6.775 13.95 1 9.136 1 5.463c0-2.363 1.925-4.2 4.2-4.2 1.05 0 2.013.437 2.8 1.05.787-.7 1.75-1.05 2.8-1.05 2.362 0 4.2 1.925 4.2 4.2 0 3.674-5.775 8.487-6.475 9.012a.72.72 0 0 1-1.05.088z" fill="#5D6D81" opacity=".9"/></svg>